<svg width="585" height="354" viewBox="0 0 585 354" fill="none" xmlns="http://www.w3.org/2000/svg">
<g clip-path="url(#clip0_12_693)">
<path d="M515.071 22.7886L364.547 120.237C363.974 120.608 363.572 121.192 363.43 121.859C363.289 122.526 363.418 123.222 363.791 123.795L430.132 225.579C430.505 226.151 431.091 226.552 431.76 226.694C432.429 226.836 433.127 226.708 433.701 226.337L584.225 128.889C584.537 128.687 584.802 128.419 585.001 128.104C585.2 127.79 585.327 127.436 585.375 127.067C585.381 127.038 585.384 127.008 585.384 126.977C585.41 126.735 585.4 126.491 585.352 126.252C585.292 125.922 585.166 125.607 584.982 125.327L518.643 23.5446C518.269 22.9723 517.683 22.5712 517.013 22.4294C516.343 22.2876 515.644 22.4168 515.071 22.7886ZM584.365 125.729C584.562 126.03 584.665 126.382 584.662 126.741C584.657 127.057 584.574 127.368 584.418 127.644C584.273 127.898 584.069 128.114 583.823 128.273L433.299 225.721C432.889 225.986 432.39 226.078 431.912 225.976C431.434 225.874 431.016 225.588 430.749 225.179L364.408 123.395C364.142 122.986 364.05 122.489 364.151 122.012C364.252 121.535 364.539 121.119 364.948 120.853L515.472 23.4047C515.882 23.1393 516.381 23.0471 516.86 23.1483C517.338 23.2496 517.757 23.5361 518.025 23.9448L584.365 125.729Z" fill="#3F3D56"/>
<path d="M522.617 30.2319L368.324 130.145L368.727 130.763L523.019 30.8492L522.617 30.2319Z" fill="#3F3D56"/>
<path d="M372.168 124.573C373.192 123.91 373.482 122.544 372.816 121.522C372.15 120.5 370.78 120.209 369.756 120.872C368.732 121.535 368.441 122.901 369.107 123.923C369.774 124.945 371.144 125.236 372.168 124.573Z" fill="#3F3D56"/>
<path d="M377.502 121.119C378.526 120.456 378.816 119.09 378.15 118.068C377.484 117.046 376.114 116.755 375.09 117.418C374.065 118.081 373.775 119.447 374.441 120.469C375.107 121.491 376.478 121.782 377.502 121.119Z" fill="#3F3D56"/>
<path d="M382.836 117.665C383.86 117.002 384.15 115.636 383.484 114.614C382.818 113.592 381.448 113.301 380.423 113.964C379.399 114.627 379.109 115.993 379.775 117.015C380.441 118.037 381.812 118.328 382.836 117.665Z" fill="#3F3D56"/>
<path d="M443.903 125.207L404.893 150.467C404.39 150.779 403.784 150.881 403.205 150.752C402.627 150.623 402.122 150.273 401.799 149.778C401.476 149.282 401.361 148.68 401.478 148.101C401.595 147.522 401.935 147.012 402.425 146.68L441.435 121.421C441.938 121.109 442.544 121.007 443.122 121.136C443.701 121.265 444.206 121.614 444.529 122.11C444.852 122.606 444.967 123.208 444.85 123.787C444.733 124.366 444.393 124.876 443.903 125.207Z" fill="#0099FF"/>
<path d="M469.04 111.221L402.06 154.594C401.994 154.637 401.914 154.652 401.837 154.635C401.76 154.619 401.693 154.573 401.651 154.507C401.608 154.442 401.593 154.362 401.609 154.285C401.625 154.209 401.671 154.142 401.737 154.099L468.718 110.726C468.783 110.683 468.864 110.668 468.94 110.685C469.017 110.701 469.084 110.747 469.127 110.813C469.17 110.878 469.185 110.958 469.168 111.035C469.152 111.111 469.106 111.178 469.04 111.221Z" fill="#3F3D56"/>
<path d="M454.225 141.049L415.215 166.308C414.712 166.62 414.106 166.722 413.528 166.593C412.949 166.464 412.444 166.115 412.121 165.619C411.798 165.123 411.683 164.521 411.8 163.942C411.917 163.363 412.257 162.853 412.747 162.522L451.757 137.262C452.26 136.95 452.866 136.848 453.445 136.977C454.023 137.106 454.528 137.456 454.851 137.951C455.174 138.447 455.289 139.049 455.172 139.628C455.055 140.207 454.715 140.717 454.225 141.049Z" fill="#0099FF"/>
<path d="M479.362 127.061L412.381 170.434C412.316 170.477 412.236 170.492 412.159 170.475C412.082 170.459 412.015 170.413 411.972 170.347C411.929 170.282 411.914 170.202 411.931 170.125C411.947 170.049 411.993 169.982 412.059 169.939L479.039 126.566C479.105 126.523 479.185 126.508 479.262 126.525C479.339 126.541 479.406 126.587 479.449 126.653C479.491 126.718 479.506 126.798 479.49 126.875C479.474 126.951 479.428 127.018 479.362 127.061Z" fill="#3F3D56"/>
<path d="M464.546 156.887L425.535 182.147C425.032 182.458 424.427 182.561 423.848 182.432C423.27 182.303 422.765 181.953 422.442 181.458C422.119 180.962 422.004 180.36 422.121 179.781C422.238 179.202 422.578 178.692 423.068 178.36L462.078 153.101C462.581 152.789 463.187 152.687 463.765 152.816C464.344 152.944 464.848 153.294 465.171 153.79C465.494 154.286 465.61 154.888 465.493 155.467C465.376 156.046 465.036 156.556 464.546 156.887Z" fill="#F2F2F2"/>
<path d="M489.683 142.9L422.703 186.274C422.637 186.317 422.557 186.332 422.48 186.315C422.403 186.299 422.336 186.253 422.293 186.187C422.251 186.122 422.236 186.042 422.252 185.965C422.268 185.889 422.314 185.822 422.38 185.779L489.361 142.405C489.426 142.363 489.506 142.348 489.583 142.364C489.66 142.381 489.727 142.427 489.77 142.492C489.813 142.558 489.828 142.638 489.811 142.714C489.795 142.791 489.749 142.858 489.683 142.9Z" fill="#3F3D56"/>
<path d="M230.792 124.264C231.232 124.464 231.654 124.699 232.056 124.967L272.228 107.874L273.662 97.3248L289.714 97.2266L288.765 121.424L235.743 135.404C235.631 135.772 235.497 136.132 235.341 136.483C234.575 138.114 233.342 139.482 231.797 140.417C230.253 141.351 228.466 141.81 226.661 141.736C224.856 141.661 223.113 141.056 221.652 139.998C220.19 138.939 219.075 137.474 218.447 135.785C217.818 134.097 217.703 132.261 218.118 130.508C218.533 128.755 219.457 127.163 220.776 125.933C222.096 124.702 223.75 123.887 225.532 123.591C227.314 123.294 229.144 123.529 230.792 124.267V124.264Z" fill="#A0616A"/>
<path d="M295.551 343.518H284.571L279.347 301.296H295.553L295.551 343.518Z" fill="#A0616A"/>
<path d="M276.727 340.391H297.904V353.679H263.394C263.394 350.153 264.798 346.772 267.299 344.279C269.8 341.787 273.191 340.386 276.727 340.386V340.391Z" fill="#2F2E41"/>
<path d="M338.257 340.425L327.33 341.497L317.978 299.989L334.106 298.405L338.257 340.425Z" fill="#A0616A"/>
<path d="M319.213 339.157L340.288 337.088L341.595 350.316L307.251 353.689C306.905 350.18 307.97 346.678 310.214 343.953C312.457 341.228 315.694 339.503 319.214 339.157L319.213 339.157Z" fill="#2F2E41"/>
<path d="M298.608 52.5415C310.758 52.5415 320.607 42.7231 320.607 30.6115C320.607 18.4999 310.758 8.68146 298.608 8.68146C286.459 8.68146 276.61 18.4999 276.61 30.6115C276.61 42.7231 286.459 52.5415 298.608 52.5415Z" fill="#A0616A"/>
<path d="M282.117 334.98C281.173 334.982 280.258 334.652 279.535 334.047C278.811 333.443 278.325 332.603 278.162 331.676C272.483 300.23 253.9 197.385 253.456 194.536C253.446 194.47 253.441 194.404 253.442 194.338V186.67C253.441 186.391 253.529 186.118 253.692 185.891L256.146 182.464C256.263 182.3 256.416 182.163 256.593 182.067C256.771 181.97 256.968 181.915 257.171 181.906C271.163 181.253 316.987 179.336 319.201 182.093C321.424 184.861 320.638 193.26 320.455 194.915L320.464 195.087L341.05 326.34C341.212 327.387 340.953 328.455 340.33 329.313C339.708 330.171 338.771 330.75 337.723 330.925L324.865 333.037C323.907 333.19 322.926 332.996 322.1 332.489C321.274 331.982 320.658 331.197 320.364 330.275C316.387 317.607 303.052 274.99 298.43 258.499C298.401 258.396 298.334 258.306 298.244 258.247C298.153 258.188 298.044 258.164 297.937 258.179C297.829 258.194 297.731 258.248 297.661 258.329C297.59 258.411 297.551 258.515 297.552 258.623C297.783 274.343 298.341 314.449 298.537 328.301L298.557 329.793C298.566 330.803 298.194 331.78 297.515 332.53C296.836 333.279 295.9 333.748 294.891 333.843L282.493 334.963C282.367 334.975 282.246 334.98 282.117 334.98Z" fill="#2F2E41"/>
<path d="M284.647 61.1649C280.808 63.44 278.511 67.6204 277.192 71.8795C274.752 79.7556 273.283 87.8989 272.818 96.1292L271.424 120.773L254.178 186.105C269.126 198.713 277.747 195.847 297.869 185.534C317.992 175.221 320.29 188.973 320.29 188.973L324.313 133.384L330.061 72.6393C328.771 71.0903 327.31 69.6905 325.707 68.466C320.393 64.3463 314.212 61.4826 307.627 60.0906C301.042 58.6986 294.226 58.8147 287.693 60.4301L284.647 61.1649Z" fill="#0099FF"/>
<path d="M279.045 137.458C279.509 137.631 279.958 137.84 280.389 138.083L320.11 118.261L320.769 107.523L337.154 106.397L338.032 130.874L284.95 148.374C284.516 150.229 283.527 151.908 282.114 153.188C280.7 154.468 278.929 155.289 277.035 155.541C275.142 155.793 273.217 155.465 271.516 154.599C269.814 153.734 268.418 152.373 267.511 150.697C266.605 149.021 266.232 147.109 266.443 145.217C266.653 143.324 267.436 141.541 268.688 140.103C269.94 138.665 271.602 137.641 273.452 137.168C275.302 136.694 277.252 136.794 279.044 137.453L279.045 137.458Z" fill="#A0616A"/>
<path d="M329.775 72.9125C339.547 76.351 341.27 113.605 341.27 113.605C329.772 107.301 315.975 117.616 315.975 117.616C315.975 117.616 313.101 107.873 309.652 95.2657C308.61 91.7194 308.486 87.9681 309.29 84.3608C310.094 80.7536 311.8 77.4078 314.25 74.6349C314.25 74.6349 320.001 69.4723 329.775 72.9125Z" fill="#0099FF"/>
<path d="M318.333 36.4116C315.592 34.2258 311.853 38.1973 311.853 38.1973L309.66 18.5263C309.66 18.5263 295.956 20.163 287.184 17.9799C278.412 15.7968 277.043 25.9042 277.043 25.9042C276.59 21.8215 276.499 17.7071 276.769 13.6083C277.317 8.69036 284.443 3.77149 297.051 0.492835C309.659 -2.78582 316.237 11.4226 316.237 11.4226C325.009 15.7932 321.074 38.5974 318.333 36.4116Z" fill="#2F2E41"/>
<path d="M582.42 227.618H402.941C402.257 227.619 401.602 227.889 401.118 228.371C400.635 228.853 400.363 229.507 400.362 230.189V351.43C400.363 352.112 400.635 352.765 401.118 353.247C401.602 353.729 402.257 354 402.941 354.001H582.42C582.792 354.001 583.161 353.92 583.499 353.764C583.838 353.609 584.138 353.382 584.38 353.099C584.401 353.077 584.42 353.053 584.437 353.028C584.591 352.84 584.716 352.629 584.807 352.403C584.936 352.094 585.003 351.762 585.002 351.427V230.189C585.001 229.506 584.729 228.853 584.244 228.37C583.76 227.888 583.104 227.618 582.42 227.618ZM584.265 351.43C584.265 351.789 584.159 352.139 583.96 352.438C583.783 352.701 583.544 352.916 583.262 353.063C583.002 353.197 582.713 353.267 582.42 353.267H402.941C402.452 353.266 401.984 353.073 401.639 352.728C401.293 352.384 401.099 351.917 401.098 351.43V230.189C401.099 229.702 401.293 229.235 401.639 228.89C401.984 228.546 402.452 228.352 402.941 228.352H582.42C582.908 228.352 583.377 228.545 583.723 228.89C584.069 229.234 584.264 229.701 584.265 230.189V351.43Z" fill="#3F3D56"/>
<path d="M584.63 237.92H400.729V238.655H584.63V237.92Z" fill="#3F3D56"/>
<path d="M406.995 235.334C408.216 235.334 409.206 234.347 409.206 233.129C409.206 231.911 408.216 230.924 406.995 230.924C405.773 230.924 404.783 231.911 404.783 233.129C404.783 234.347 405.773 235.334 406.995 235.334Z" fill="#3F3D56"/>
<path d="M413.352 235.334C414.573 235.334 415.563 234.347 415.563 233.129C415.563 231.911 414.573 230.924 413.352 230.924C412.131 230.924 411.141 231.911 411.141 233.129C411.141 234.347 412.131 235.334 413.352 235.334Z" fill="#3F3D56"/>
<path d="M419.71 235.334C420.931 235.334 421.921 234.347 421.921 233.129C421.921 231.911 420.931 230.924 419.71 230.924C418.488 230.924 417.498 231.911 417.498 233.129C417.498 234.347 418.488 235.334 419.71 235.334Z" fill="#3F3D56"/>
<path d="M466.779 274.8H420.28C419.688 274.789 419.124 274.546 418.71 274.125C418.296 273.703 418.063 273.137 418.063 272.546C418.063 271.956 418.296 271.39 418.71 270.968C419.124 270.547 419.688 270.304 420.28 270.292H466.779C467.371 270.304 467.935 270.547 468.349 270.968C468.764 271.39 468.996 271.956 468.996 272.546C468.996 273.137 468.764 273.703 468.349 274.125C467.935 274.546 467.371 274.789 466.779 274.8Z" fill="#0099FF"/>
<path d="M495.487 276.724H415.653C415.575 276.724 415.499 276.693 415.444 276.637C415.389 276.582 415.357 276.507 415.357 276.429C415.357 276.351 415.389 276.276 415.444 276.221C415.499 276.165 415.575 276.134 415.653 276.134H495.487C495.566 276.134 495.641 276.165 495.696 276.221C495.752 276.276 495.783 276.351 495.783 276.429C495.783 276.507 495.752 276.582 495.696 276.637C495.641 276.693 495.566 276.724 495.487 276.724Z" fill="#3F3D56"/>
<path d="M466.779 293.681H420.28C419.688 293.669 419.124 293.427 418.71 293.005C418.296 292.584 418.063 292.017 418.063 291.427C418.063 290.837 418.296 290.27 418.71 289.849C419.124 289.427 419.688 289.185 420.28 289.173H466.779C467.371 289.185 467.935 289.427 468.349 289.849C468.764 290.27 468.996 290.837 468.996 291.427C468.996 292.017 468.764 292.584 468.349 293.005C467.935 293.427 467.371 293.669 466.779 293.681Z" fill="#0099FF"/>
<path d="M495.487 295.604H415.653C415.575 295.604 415.499 295.573 415.444 295.517C415.389 295.462 415.357 295.387 415.357 295.309C415.357 295.231 415.389 295.156 415.444 295.101C415.499 295.045 415.575 295.014 415.653 295.014H495.487C495.566 295.014 495.641 295.045 495.696 295.101C495.752 295.156 495.783 295.231 495.783 295.309C495.783 295.387 495.752 295.462 495.696 295.517C495.641 295.573 495.566 295.604 495.487 295.604Z" fill="#3F3D56"/>
<path d="M466.779 312.559H420.28C419.688 312.548 419.124 312.305 418.71 311.884C418.296 311.462 418.063 310.896 418.063 310.305C418.063 309.715 418.296 309.149 418.71 308.727C419.124 308.306 419.688 308.063 420.28 308.051H466.779C467.371 308.063 467.935 308.306 468.349 308.727C468.764 309.149 468.996 309.715 468.996 310.305C468.996 310.896 468.764 311.462 468.349 311.884C467.935 312.305 467.371 312.548 466.779 312.559Z" fill="#F2F2F2"/>
<path d="M495.487 314.483H415.653C415.575 314.483 415.499 314.452 415.444 314.396C415.389 314.341 415.357 314.266 415.357 314.188C415.357 314.11 415.389 314.035 415.444 313.98C415.499 313.924 415.575 313.893 415.653 313.893H495.487C495.566 313.893 495.641 313.924 495.696 313.98C495.752 314.035 495.783 314.11 495.783 314.188C495.783 314.266 495.752 314.341 495.696 314.396C495.641 314.452 495.566 314.483 495.487 314.483Z" fill="#3F3D56"/>
<path d="M218.424 106.187H3.09362C2.27336 106.187 1.4869 106.512 0.906885 107.091C0.326872 107.669 0.000711519 108.453 0 109.271V254.731C0.000711519 255.548 0.326872 256.332 0.906885 256.91C1.4869 257.489 2.27336 257.814 3.09362 257.815H218.424C218.871 257.815 219.313 257.718 219.719 257.531C220.125 257.344 220.486 257.072 220.776 256.732C220.801 256.706 220.823 256.677 220.843 256.648C221.029 256.423 221.18 256.171 221.291 255.901C221.447 255.53 221.526 255.132 221.525 254.731V109.271C221.524 108.865 221.444 108.464 221.288 108.089C221.132 107.715 220.903 107.375 220.615 107.088C220.327 106.802 219.986 106.575 219.61 106.42C219.234 106.265 218.831 106.186 218.424 106.187ZM220.638 254.731C220.639 255.161 220.511 255.582 220.273 255.94C220.061 256.256 219.773 256.514 219.435 256.69C219.123 256.851 218.776 256.935 218.424 256.934H3.09362C2.50782 256.933 1.94622 256.701 1.53199 256.288C1.11776 255.875 0.884732 255.315 0.884021 254.731V109.271C0.884732 108.687 1.11776 108.127 1.53199 107.714C1.94622 107.301 2.50782 107.069 3.09362 107.068H218.424C219.011 107.068 219.573 107.3 219.989 107.713C220.404 108.126 220.637 108.687 220.638 109.271V254.731Z" fill="#3F3D56"/>
<path d="M221.077 118.546H0.440674V119.427H221.077V118.546Z" fill="#3F3D56"/>
<path d="M7.9571 115.443C9.42229 115.443 10.6101 114.259 10.6101 112.798C10.6101 111.338 9.42229 110.154 7.9571 110.154C6.49191 110.154 5.30414 111.338 5.30414 112.798C5.30414 114.259 6.49191 115.443 7.9571 115.443Z" fill="#3F3D56"/>
<path d="M15.5846 115.443C17.0498 115.443 18.2375 114.259 18.2375 112.798C18.2375 111.338 17.0498 110.154 15.5846 110.154C14.1194 110.154 12.9316 111.338 12.9316 112.798C12.9316 114.259 14.1194 115.443 15.5846 115.443Z" fill="#3F3D56"/>
<path d="M23.2121 115.443C24.6773 115.443 25.865 114.259 25.865 112.798C25.865 111.338 24.6773 110.154 23.2121 110.154C21.7469 110.154 20.5591 111.338 20.5591 112.798C20.5591 114.259 21.7469 115.443 23.2121 115.443Z" fill="#3F3D56"/>
<path d="M169.652 195.379H95.975C95.0868 195.379 94.235 195.027 93.607 194.401C92.9789 193.775 92.6261 192.926 92.6261 192.04C92.6261 191.155 92.9789 190.306 93.607 189.68C94.235 189.054 95.0868 188.702 95.975 188.702H169.652C170.541 188.702 171.392 189.054 172.02 189.68C172.648 190.306 173.001 191.155 173.001 192.04C173.001 192.926 172.648 193.775 172.02 194.401C171.392 195.027 170.541 195.379 169.652 195.379Z" fill="#F2F2F2"/>
<path d="M121.511 181.19H95.9759C95.0877 181.19 94.2359 180.839 93.6079 180.212C92.9798 179.586 92.627 178.737 92.627 177.852C92.627 176.966 92.9798 176.117 93.6079 175.491C94.2359 174.865 95.0877 174.513 95.9759 174.513H121.511C122.399 174.513 123.251 174.865 123.879 175.491C124.507 176.117 124.86 176.966 124.86 177.852C124.86 178.737 124.507 179.586 123.879 180.212C123.251 180.839 122.399 181.19 121.511 181.19Z" fill="#F2F2F2"/>
<path d="M62.6043 199.447C70.465 199.447 76.8373 193.094 76.8373 185.258C76.8373 177.422 70.465 171.069 62.6043 171.069C54.7436 171.069 48.3713 177.422 48.3713 185.258C48.3713 193.094 54.7436 199.447 62.6043 199.447Z" fill="#0099FF"/>
<path d="M177.037 163.558H44.3354C42.4487 163.56 40.64 164.309 39.3058 165.639C37.9717 166.969 37.2211 168.772 37.2185 170.653V199.865C37.2213 201.745 37.9719 203.548 39.3058 204.878C40.6397 206.208 42.4481 206.956 44.3345 206.959H177.037C178.924 206.956 180.732 206.208 182.066 204.878C183.4 203.548 184.151 201.745 184.153 199.864V170.651C184.151 168.77 183.4 166.967 182.066 165.637C180.732 164.307 178.924 163.559 177.037 163.556V163.558ZM183.317 199.864C183.315 201.524 182.653 203.115 181.475 204.288C180.298 205.462 178.702 206.122 177.037 206.124H44.3354C42.6706 206.122 41.0744 205.462 39.8972 204.288C38.72 203.115 38.0578 201.524 38.0559 199.864V170.651C38.0578 168.991 38.72 167.4 39.8972 166.226C41.0744 165.053 42.6706 164.393 44.3354 164.391H177.037C178.702 164.393 180.298 165.053 181.475 166.226C182.653 167.4 183.315 168.991 183.317 170.651V199.864Z" fill="#3F3D56"/>
</g>
<defs>
<clipPath id="clip0_12_693">
<rect width="585" height="354" fill="white"/>
</clipPath>
</defs>
</svg>
